# Blender v3.0.0 OBJ File: 'cube-righthand.blend'
# www.blender.org
mtllib cube-righthand.mtl
o Cube
v -0.500000 -0.500000 0.500000
v -0.500000 0.500000 0.500000
v -0.500000 -0.500000 -0.500000
v -0.500000 0.500000 -0.500000
v 0.500000 -0.500000 0.500000
v 0.500000 0.500000 0.500000
v 0.500000 -0.500000 -0.500000
v 0.500000 0.500000 -0.500000
v 0.500000 -0.050000 0.050000
v 0.500000 0.050000 0.050000
v 0.500000 -0.050000 -0.050000
v 0.500000 0.050000 -0.050000
v 2.500000 -0.050000 0.050000
v 2.500000 0.050000 0.050000
v 2.500000 -0.050000 -0.050000
v 2.500000 0.050000 -0.050000
v -0.050000 -0.050000 0.500000
v -0.050000 0.050000 0.500000
v 0.050000 -0.050000 0.500000
v 0.050000 0.050000 0.500000
v -0.050000 -0.050000 2.500000
v -0.050000 0.050000 2.500000
v 0.050000 -0.050000 2.500000
v 0.050000 0.050000 2.500000
v 0.050000 0.500000 0.050000
v -0.050000 0.500000 0.050000
v 0.050000 0.500000 -0.050000
v -0.050000 0.500000 -0.050000
v 0.050000 2.500000 0.050000
v -0.050000 2.500000 0.050000
v 0.050000 2.500000 -0.050000
v -0.050000 2.500000 -0.050000
vn -1.0000 0.0000 0.0000
vn 0.0000 0.0000 -1.0000
vn 1.0000 0.0000 0.0000
vn 0.0000 0.0000 1.0000
vn 0.0000 -1.0000 0.0000
vn 0.0000 1.0000 0.0000
usemtl Origin
s off
f 1//1 2//1 4//1 3//1
f 3//2 4//2 8//2 7//2
f 7//3 8//3 6//3 5//3
f 5//4 6//4 2//4 1//4
f 3//5 7//5 5//5 1//5
f 8//6 4//6 2//6 6//6
usemtl X
f 9//1 10//1 12//1 11//1
f 11//2 12//2 16//2 15//2
f 15//3 16//3 14//3 13//3
f 13//4 14//4 10//4 9//4
f 11//5 15//5 13//5 9//5
f 16//6 12//6 10//6 14//6
usemtl Y
f 25//5 26//5 28//5 27//5
f 27//2 28//2 32//2 31//2
f 31//6 32//6 30//6 29//6
f 29//4 30//4 26//4 25//4
f 27//3 31//3 29//3 25//3
f 32//1 28//1 26//1 30//1
usemtl Z
f 17//2 18//2 20//2 19//2
f 19//3 20//3 24//3 23//3
f 23//4 24//4 22//4 21//4
f 21//1 22//1 18//1 17//1
f 19//5 23//5 21//5 17//5
f 24//6 20//6 18//6 22//6
